<?xml version="1.0" encoding="UTF-8" standalone="no"?>
<!-- Generator: Adobe Illustrator 13.0.0, SVG Export Plug-In . SVG Version: 6.00 Build 14948)  -->

<svg
   version="1.1"
   id="Camada_1"
   x="0px"
   y="0px"
   width="418.32001"
   height="125.68"
   viewBox="0 0 418.32 125.68001"
   enable-background="new 0 0 418.32 178.68"
   xml:space="preserve"
   sodipodi:docname="cnpq.svg"
   inkscape:version="1.3.2 (091e20e, 2023-11-25, custom)"
   xmlns:inkscape="http://www.inkscape.org/namespaces/inkscape"
   xmlns:sodipodi="http://sodipodi.sourceforge.net/DTD/sodipodi-0.dtd"
   xmlns="http://www.w3.org/2000/svg"
   xmlns:svg="http://www.w3.org/2000/svg"><defs
   id="defs7" /><sodipodi:namedview
   id="namedview7"
   pagecolor="#ffffff"
   bordercolor="#000000"
   borderopacity="0.25"
   inkscape:showpageshadow="2"
   inkscape:pageopacity="0.0"
   inkscape:pagecheckerboard="0"
   inkscape:deskcolor="#d1d1d1"
   inkscape:zoom="0.81516541"
   inkscape:cx="207.93326"
   inkscape:cy="34.962229"
   inkscape:window-width="1366"
   inkscape:window-height="705"
   inkscape:window-x="-8"
   inkscape:window-y="-8"
   inkscape:window-maximized="1"
   inkscape:current-layer="Camada_1" />
<path
   fill="#0067a6"
   d="m 103.248,41.88 c 2.088,8.352 1.872,12.888 0.432,19.584 -1.872,7.488 -5.976,13.032 -9.864,16.488 L 107.712,125.4 H 93.96 C 89.352,108.048 83.592,88.896 78.84,71.544 81.648,70.032 89.496,65.568 90.792,55.128 92.016,45.336 85.896,37.704 81.72,34.896 c -3.672,-2.232 -9.072,-3.96 -14.112,-2.952 -9.792,1.08 -16.416,8.64 -17.928,16.992 -0.216,1.152 -0.216,1.728 -0.36,3.312 0,0 -3.816,10.728 -5.112,14.112 h 2.88 l -0.072,27.864 h 33.12 l 3.816,13.536 H 33.336 V 76.584 h -6.984 c 2.52,-7.56 9,-24.336 9,-24.336 0.792,-6.048 1.152,-17.64 13.464,-27.144 5.76,-4.824 14.76,-8.064 24.408,-7.272 15.912,1.944 26.496,12.816 30.024,24.048 z"
   id="path1" />
<path
   fill="#0067a6"
   d="m 117.36,29.496 c 10.08,22.248 3.528,43.128 -3.96,52.992 l 11.448,42.552 H 111.312 L 98.064,79.248 C 106.272,71.4 111.384,55.416 107.424,42.24 103.824,28.92 92.736,17.688 77.04,14.592 60.192,11.136 44.28,19.776 37.512,31.728 c -4.32,6.552 -5.04,12.816 -5.76,20.52 0,0 -8.496,20.376 -11.376,27.792 h 9 l 0.072,31.32 H 84.96 l 3.888,13.896 H 15.696 V 92.28 L 0,92.208 C 0,92.208 16.992,53.4 16.92,52.248 17.928,38.64 24.048,21.72 37.008,11.64 43.632,6.456 52.488,1.488 64.296,0.336 c 12.816,-1.224 18.288,1.08 26.856,3.96 14.328,6.12 24.048,19.944 26.208,25.2 z"
   id="path2" />
<path
   fill="#0067a6"
   d="M 56.52,52.68 C 56.52,45.12 62.64,39 70.128,39 c 7.56,0 13.68,6.12 13.68,13.68 0,7.488 -6.12,13.536 -13.68,13.536 -7.488,0 -13.608,-6.048 -13.608,-13.536 z"
   id="path3" />



<path
   fill="#0067a6"
   d="m 385.776,117.192 v -2.088 L 390.6,91.56 c -1.296,1.512 -2.448,2.808 -3.6,3.744 -0.432,0.432 -0.792,0.72 -1.224,1.08 v -8.28 c 1.224,-0.432 2.376,-1.08 3.456,-2.016 1.944,-1.728 3.672,-5.4 5.112,-11.016 0.36,-0.936 0.576,-1.944 0.72,-3.168 0.144,-1.152 0.216,-2.376 0.216,-3.6 0,-2.304 -0.432,-4.392 -1.44,-6.264 -0.936,-1.872 -2.808,-2.808 -5.544,-2.808 -0.936,0 -1.728,0.072 -2.52,0.36 V 47.784 c 2.376,0.072 4.464,0.792 6.336,2.088 1.944,1.368 3.528,2.808 4.824,4.464 0.288,0.288 0.504,0.576 0.648,0.864 0.216,0.288 0.432,0.576 0.576,0.936 l 1.584,-6.12 h 18.144 l -14.4,67.176 z m 0,-69.408 v 11.808 c -1.368,0.432 -2.592,1.296 -3.6,2.52 -1.512,1.944 -2.736,4.104 -3.6,6.48 -0.432,1.152 -0.792,2.304 -1.008,3.456 -0.288,1.08 -0.432,2.088 -0.576,3.024 v -0.144 c -0.144,0.504 -0.288,1.008 -0.36,1.512 -0.072,0.576 -0.144,1.008 -0.216,1.44 -0.072,0.576 -0.144,1.008 -0.144,1.512 -0.072,0.504 -0.072,1.008 -0.072,1.512 0,2.088 0.432,3.888 1.296,5.472 0.864,1.512 2.448,2.304 4.752,2.304 1.224,0 2.448,-0.216 3.528,-0.576 v 8.28 c -0.72,0.504 -1.368,1.008 -2.088,1.368 -1.44,0.792 -2.952,1.368 -4.536,1.656 -1.512,0.36 -3.24,0.504 -5.184,0.504 -5.76,0 -9.792,-1.368 -12.024,-4.032 -2.16,-2.592 -3.528,-5.544 -4.032,-8.784 -0.216,-1.152 -0.36,-2.304 -0.432,-3.456 -0.072,-1.224 -0.072,-2.304 -0.072,-3.312 v -0.144 c 0.072,-1.296 0.216,-2.736 0.36,-4.176 0.216,-1.512 0.432,-2.952 0.792,-4.536 1.368,-5.76 4.032,-11.088 8.064,-15.912 4.032,-4.896 10.224,-7.488 18.72,-7.776 0.144,0 0.288,0 0.432,0 z m 0,67.32 v 2.088 h -0.432 z M 324.864,74.28 c 8.784,0 16.416,-2.232 22.824,-6.696 6.48,-4.536 9.72,-11.808 9.72,-22.032 0,-6.12 -2.088,-10.296 -6.264,-12.528 -4.176,-2.232 -8.712,-3.528 -13.68,-3.888 -0.864,-0.072 -1.656,-0.072 -2.52,-0.144 -0.864,0 -1.656,-0.072 -2.52,-0.144 h -7.56 v 14.4 h 2.304 c 3.24,0 5.616,0.648 6.984,1.872 1.368,1.296 2.016,2.736 2.016,4.464 0,0.432 0,0.792 -0.072,1.152 -0.072,0.432 -0.144,0.792 -0.288,1.152 -0.576,2.16 -1.944,4.176 -4.104,6.048 -1.944,1.656 -4.248,2.52 -6.84,2.592 V 74.28 Z m 0,-45.432 v 14.4 l -7.488,-0.072 -3.816,17.352 h 10.656 c 0.216,0 0.432,0 0.648,0 v 13.752 0 l -14.328,-0.072 -5.256,24.12 H 287.064 V 91.2 l 12.96,-62.352 z m -37.8,6.912 1.512,-6.912 h -1.512 z m -81.216,2.16 c 0.72,1.728 1.008,3.744 1.008,6.048 0,0.792 0,1.656 -0.144,2.592 -0.072,0.864 -0.216,1.8 -0.504,2.736 h -0.36 z m 81.216,-9.072 H 270.432 L 259.128,78.672 247.032,28.848 h -27.936 l -13.248,64.44 v 5.04 H 222.84 L 233.424,45.48 246.24,98.328 h 27.288 L 287.064,35.76 Z m 0,62.352 v 7.128 h -1.44 z M 134.424,73.416 c 0,-2.52 0.216,-5.328 0.576,-8.424 0.36,-3.096 1.08,-6.192 2.016,-9.36 2.232,-7.056 6.408,-13.608 12.528,-19.584 6.12,-5.976 15.408,-9.144 28.008,-9.36 1.44,0 3.024,0 4.68,0.144 1.656,0.072 3.384,0.216 5.112,0.504 4.824,0.72 9.288,2.304 13.392,4.68 2.376,1.44 4.104,3.384 5.112,5.904 v 11.376 l -20.736,-0.072 c 0.072,-0.36 0.072,-0.648 0.144,-1.008 0,-0.36 0.072,-0.648 0.072,-0.936 0,-2.304 -0.72,-3.96 -2.016,-5.04 -1.296,-1.08 -2.736,-1.872 -4.248,-2.232 -0.864,-0.216 -1.656,-0.288 -2.448,-0.36 -0.792,-0.072 -1.512,-0.144 -2.088,-0.144 -0.576,0 -1.152,0.072 -1.728,0.144 -0.576,0.144 -1.152,0.216 -1.728,0.36 -2.88,0.864 -5.616,3.096 -8.352,6.552 -2.664,3.528 -4.752,8.712 -6.336,15.624 -0.072,0.576 -0.216,1.152 -0.288,1.728 -0.144,0.576 -0.216,1.152 -0.288,1.728 -0.144,1.224 -0.288,2.376 -0.432,3.528 -0.072,1.152 -0.144,2.304 -0.144,3.384 0,3.672 0.72,6.768 2.16,9.288 1.44,2.592 4.176,3.816 8.136,3.816 0.288,0 0.648,0 1.08,0 0.36,0 0.72,0 1.152,-0.072 0.576,0 1.296,-0.072 1.944,-0.216 0.648,-0.144 1.368,-0.432 2.16,-0.72 1.872,-0.864 3.6,-2.088 5.184,-3.816 1.584,-1.656 2.52,-3.6 2.808,-5.76 l 20.304,-0.144 c 0.072,0.216 0.144,0.36 0.144,0.504 0.072,0.216 0.072,0.36 0.072,0.576 0,1.152 -0.432,2.736 -1.296,4.752 -0.792,2.088 -2.16,4.248 -3.96,6.48 -2.736,3.168 -6.552,6.12 -11.592,8.712 -5.04,2.664 -11.52,3.96 -19.44,3.96 -0.288,0 -0.504,0 -0.792,0 -0.216,0 -0.504,0 -0.864,0 -10.728,0 -17.928,-2.232 -21.6,-6.624 -3.6,-4.464 -5.688,-9.36 -6.192,-14.688 -0.072,-0.864 -0.144,-1.728 -0.144,-2.52 -0.072,-0.864 -0.072,-1.728 -0.072,-2.592 z m 71.424,19.872 -1.08,5.04 h 1.08 z"
   id="path7" />
</svg>
