<svg width="200" height="40" viewBox="0 0 200 40" fill="none" xmlns="http://www.w3.org/2000/svg">
<path fill-rule="evenodd" clip-rule="evenodd" d="M24.7162 21.3319H29.0051V26.0281C29.0051 26.0281 28.9467 27.3447 28.8738 27.7983C27.7797 33.9867 23.3012 39.4582 15.205 39.1071C7.99856 39.1071 2.63023 35.435 0.792166 28.9248C0.325355 27.2716 0.354531 25.4282 0.412882 23.658V21.3173H3.44715L3.45717 21.3144C4.02342 21.1543 4.64438 20.9786 4.81841 20.615C5.25605 19.6787 5.02264 19.0058 4.30784 18.7278H0.106537C0.106537 18.7278 -0.053929 16.7382 0.0190102 15.5824C0.0335981 15.4069 0.0481859 15.235 0.0627737 15.0631C0.0773616 14.8912 0.0919494 14.7193 0.106537 14.5437V14.295H0.135713C0.42747 11.3251 1.08392 8.44309 2.70317 5.85362C5.73744 0.981905 10.4056 -0.422552 15.7447 0.104119C21.361 0.660051 25.5331 3.43971 27.5025 8.96976C27.9985 10.3888 28.6258 12.8466 28.6258 14.295V18.7424H24.5558C24.2786 18.8302 24.0452 18.9473 23.9285 19.1082C23.1991 20.0884 23.6221 20.9954 24.7162 21.3319ZM14.2859 31.2948C16.9847 31.3679 19.8585 29.3929 20.3107 26.979C20.3691 26.6864 20.5149 25.6331 20.442 25.2819H18.6331C18.5893 26.7157 16.9409 29.2174 14.6214 29.2174C12.725 29.2174 11.733 27.9299 10.9307 26.4377C10.9062 26.3947 10.8766 26.1894 10.844 25.9634C10.7989 25.6509 10.7481 25.2989 10.6973 25.2819H8.88842C8.77041 25.5844 8.95883 26.4896 9.04053 26.8822C9.04973 26.9263 9.05757 26.964 9.06347 26.9936C9.61781 29.4368 11.8498 31.2216 14.2859 31.2948ZM14.2276 10.9009C15.6572 10.9009 17.0284 11.7933 17.9329 13.0515C18.0629 13.2362 18.2091 13.9054 18.3235 14.4293C18.3631 14.6106 18.3989 14.7744 18.4289 14.8948H19.946C20.0044 14.5876 19.9752 13.6805 19.9314 13.4026C19.523 10.9155 17.0138 8.9405 14.3005 8.86735C11.6893 8.7942 8.97594 12.3346 9.20935 14.8948H11.0474C11.0586 14.8276 11.0676 14.6745 11.0778 14.5022C11.0942 14.2246 11.1135 13.8969 11.1495 13.7976C11.6601 12.2615 12.6667 10.9009 14.2276 10.9009ZM7.26917 5.44398C4.80382 7.75549 3.52009 10.6522 3.44715 14.017C3.44715 14.1048 3.47633 14.807 3.52009 14.8948H5.5478C5.70111 14.4182 5.79802 13.7598 5.89358 13.1107C5.97988 12.5245 6.06506 11.9458 6.18967 11.5153C7.64845 6.51196 11.9665 3.90786 16.4595 5.42935C20.3253 6.7314 21.9008 9.97921 23.0824 13.5489C23.1114 13.641 23.1324 13.7941 23.156 13.9662C23.2036 14.3135 23.2618 14.7383 23.4179 14.8948H24.9205C24.9642 14.5291 24.9496 13.5342 24.9205 13.1685C24.4391 7.59456 19.5521 3.14711 13.4982 3.0447C11.3392 2.85452 9.13641 3.70304 7.26917 5.44398ZM9.82204 18.7424C9.42817 18.9911 9.18017 19.4447 9.16559 20.1908C9.151 20.7321 9.28229 21.0978 9.50111 21.3319H13.4836V24.3164C13.6003 24.9893 14.1984 25.9257 14.636 25.9988C15.7155 26.189 15.9489 25.4868 15.9781 24.6675V21.3319H19.523C19.8585 21.1417 20.0627 20.8052 20.0773 20.1762C20.1065 18.7863 19.1728 18.6986 18.2246 18.7278C17.787 18.7424 16.1386 18.7278 16.1386 18.7278V16.0067C16.1386 15.2752 15.4821 14.7631 14.9278 14.6168C13.8775 14.3535 13.5419 14.8509 13.4544 15.5093V16.5772C13.469 16.7674 13.469 16.943 13.4544 17.1039V18.7424H9.82204ZM15.0299 36.1665C19.4646 36.1665 23.4471 33.4015 24.935 29.2027C25.2251 28.3663 25.385 26.9575 25.506 25.8915C25.531 25.6709 25.5544 25.465 25.5769 25.2819H23.8993C23.7534 28.5883 20.7483 33.0942 16.9701 33.9135C13.4398 34.6743 10.143 34.0305 7.91103 30.8559C7.02117 29.5977 5.81038 26.6133 5.48945 25.2819H4.05984C4.05984 25.6477 4.16196 26.8034 4.22031 27.1546C5.13934 32.3774 9.7491 36.1811 15.0299 36.1665ZM181.508 7.37313C180.444 6.30951 178.72 6.30951 177.656 7.37313C176.593 8.43676 176.593 10.1612 177.656 11.2249C178.72 12.2885 180.444 12.2885 181.508 11.2249C182.572 10.1612 182.572 8.43676 181.508 7.37313ZM120.053 16.2013L117.429 13.7363L115.493 15.7968C115.394 15.7371 115.293 15.679 115.191 15.6223C113.81 14.8453 112.223 14.4567 110.432 14.4567C108.64 14.4567 107.043 14.8453 105.64 15.6223C104.258 16.3994 103.157 17.4571 102.337 18.7954C101.539 20.1336 101.139 21.6662 101.139 23.393C101.139 25.1198 101.539 26.6524 102.337 27.9906C102.561 28.3552 102.805 28.6989 103.07 29.0217L101.365 30.8367L103.989 33.3017L105.878 31.2909C107.223 31.9831 108.741 32.3293 110.432 32.3293C112.223 32.3293 113.81 31.9407 115.191 31.1637C116.594 30.3866 117.695 29.3289 118.494 27.9906C119.292 26.6524 119.692 25.1198 119.692 23.393C119.692 21.6662 119.292 20.1336 118.494 18.7954C118.38 18.6054 118.261 18.4211 118.135 18.2425L120.053 16.2013ZM110.432 18.8925C111.082 18.8925 111.672 19.0286 112.202 19.3008L106.68 25.1784C106.488 24.6384 106.401 24.0432 106.417 23.393C106.395 22.5296 106.557 21.7633 106.902 21.0942C107.248 20.4035 107.723 19.8638 108.327 19.4753C108.953 19.0868 109.655 18.8925 110.432 18.8925ZM110.432 27.8611C110.018 27.8611 109.626 27.8061 109.255 27.696L114.333 22.2906C114.397 22.6386 114.424 23.006 114.414 23.393C114.436 24.2564 114.274 25.0227 113.928 25.6918C113.583 26.361 113.108 26.8898 112.504 27.2783C111.899 27.6669 111.209 27.8611 110.432 27.8611ZM48.5664 22.7131V32.0055H64.6905V27.3107H53.9087V22.7131H62.9097V18.2449H53.9087V14.0358H64.3667V9.34106H48.5664V18.2449H44.8564V22.7131H48.5664ZM70.3091 19.3458V32.0055H75.4895V19.3458H78.8244V14.8129H75.4895V10.4743H70.3091V14.8129H67.2655V19.3458H70.3091ZM81.7849 32.0055V14.8129H86.7064L86.8038 16.918C86.8956 16.8077 86.9926 16.6996 87.0949 16.5937C87.7209 15.9461 88.4655 15.4281 89.329 15.0395C90.1924 14.651 91.0989 14.4567 92.0487 14.4567C93.3438 14.4567 94.4338 14.7266 95.3188 15.2662C96.2038 15.7842 96.873 16.5721 97.3263 17.6298C97.7795 18.6659 98.0062 19.9394 98.0062 21.4503V32.0055H92.7934V21.8712C92.7934 21.1805 92.6962 20.6085 92.502 20.1552C92.3077 19.7019 92.0055 19.3674 91.5954 19.1515C91.2069 18.9141 90.7212 18.8062 90.1384 18.8277C89.6851 18.8277 89.2642 18.9033 88.8757 19.0544C88.4871 19.1839 88.1526 19.389 87.872 19.6696C87.5913 19.9286 87.3647 20.2308 87.192 20.5761C87.0409 20.9215 86.9654 21.2992 86.9654 21.7094V32.0055H84.4075H82.8534H81.7849ZM129.231 32.3293C128.411 32.3293 127.634 32.2321 126.9 32.0379C126.166 31.8652 125.497 31.6062 124.892 31.2608C124.288 30.8938 123.748 30.4621 123.273 29.9657C122.799 29.4476 122.388 28.8756 122.043 28.2497L125.184 24.9795C125.486 25.4328 125.777 25.8105 126.058 26.1127C126.339 26.3933 126.608 26.6308 126.867 26.825C127.148 27.0193 127.429 27.1596 127.709 27.246C128.011 27.3323 128.324 27.3755 128.648 27.3755C129.166 27.3755 129.62 27.2567 130.008 27.0193C130.418 26.7603 130.731 26.4149 130.947 25.9832C131.163 25.5515 131.271 25.0443 131.271 24.4615V14.133H126.058V9.34106H136.645V14.133V25.109C136.645 26.2099 136.451 27.2028 136.063 28.0878C135.696 28.9728 135.178 29.739 134.509 30.3866C133.839 31.0126 133.052 31.4982 132.145 31.8436C131.26 32.1674 130.289 32.3293 129.231 32.3293ZM143.792 31.5522C144.698 32.0918 145.788 32.3616 147.062 32.3616C148.011 32.3616 148.907 32.1782 149.749 31.8112C150.591 31.4227 151.314 30.9154 151.918 30.2895C152.065 30.1325 152.201 29.9705 152.327 29.8034L152.469 32.0055H157.358V14.8129H152.145V25.0766C152.145 25.5083 152.069 25.9077 151.918 26.2746C151.767 26.62 151.551 26.933 151.271 27.2136C151.012 27.4726 150.688 27.6777 150.299 27.8288C149.932 27.9798 149.522 28.0554 149.069 28.0554C148.465 28.0554 147.947 27.9259 147.515 27.6669C147.083 27.3863 146.759 26.9977 146.544 26.5013C146.328 26.0048 146.22 25.4112 146.22 24.7205V14.8129H141.007V25.4328C141.007 26.879 141.244 28.1202 141.719 29.1562C142.216 30.1923 142.907 30.991 143.792 31.5522ZM161.975 32.0055V14.8129H166.896L167.002 17.4298C167.129 17.2312 167.267 17.0388 167.414 16.8527C168.019 16.1188 168.72 15.536 169.519 15.1043C170.318 14.6726 171.17 14.4567 172.077 14.4567C172.465 14.4567 172.821 14.4891 173.145 14.5539C173.491 14.6186 173.804 14.6942 174.084 14.7805L172.66 20.5114C172.422 20.3603 172.098 20.2416 171.688 20.1552C171.3 20.0473 170.89 19.9933 170.458 19.9933C169.983 19.9933 169.54 20.0797 169.13 20.2524C168.72 20.4035 168.375 20.6301 168.094 20.9323C167.814 21.2345 167.587 21.5906 167.414 22.0008C167.263 22.4109 167.188 22.875 167.188 23.393V32.0055H161.975ZM177.001 14.8129V32.0055H182.181V14.8129H177.001ZM192.844 32.3293C191.161 32.3293 189.671 32.0594 188.376 31.5198C187.103 30.9802 186.088 30.2571 185.333 29.3505L188.473 26.6308C189.142 27.2999 189.898 27.7964 190.74 28.1201C191.582 28.4223 192.38 28.5734 193.136 28.5734C193.438 28.5734 193.708 28.5411 193.945 28.4763C194.183 28.4116 194.377 28.3252 194.528 28.2173C194.701 28.0878 194.83 27.9475 194.916 27.7964C195.003 27.6237 195.046 27.4294 195.046 27.2136C195.046 26.7819 194.852 26.4473 194.463 26.2099C194.269 26.1019 193.945 25.9724 193.492 25.8213C193.039 25.6702 192.456 25.4976 191.743 25.3033C190.729 25.0443 189.844 24.7421 189.088 24.3967C188.355 24.0298 187.75 23.6089 187.275 23.134C186.844 22.6807 186.509 22.1842 186.272 21.6446C186.034 21.0834 185.915 20.4574 185.915 19.7667C185.915 18.968 186.099 18.2449 186.466 17.5974C186.854 16.9498 187.362 16.3886 187.988 15.9137C188.635 15.4389 189.369 15.0827 190.189 14.8453C191.031 14.5863 191.895 14.4567 192.78 14.4567C193.729 14.4567 194.636 14.5647 195.499 14.7805C196.363 14.9964 197.161 15.2986 197.895 15.6871C198.651 16.0756 199.32 16.5397 199.903 17.0793L197.183 20.1229C196.794 19.7559 196.352 19.4321 195.855 19.1515C195.381 18.8493 194.884 18.6119 194.366 18.4392C193.848 18.2665 193.373 18.1802 192.941 18.1802C192.618 18.1802 192.326 18.2126 192.067 18.2773C191.83 18.3205 191.625 18.4068 191.452 18.5363C191.279 18.6443 191.15 18.7846 191.064 18.9573C190.977 19.1083 190.934 19.2918 190.934 19.5077C190.934 19.7235 190.988 19.9286 191.096 20.1229C191.225 20.3171 191.398 20.479 191.614 20.6085C191.83 20.738 192.175 20.8891 192.65 21.0618C193.125 21.2129 193.772 21.4072 194.593 21.6446C195.607 21.9252 196.481 22.2382 197.215 22.5836C197.949 22.9289 198.532 23.339 198.964 23.8139C199.309 24.1809 199.568 24.6126 199.741 25.109C199.913 25.5839 200 26.1019 200 26.6632C200 27.764 199.687 28.7461 199.061 29.6095C198.456 30.4513 197.615 31.1205 196.535 31.6169C195.456 32.0918 194.226 32.3293 192.844 32.3293Z" fill="white"/>
</svg>
